<svg width="426" height="393" viewBox="0 0 426 393" fill="none" xmlns="http://www.w3.org/2000/svg">
<path d="M50.7041 67.6971C56.1955 67.149 66.8181 67.4652 72.9033 67.4764H72.9043L115.075 67.5321H115.078L251.659 67.5204C250.308 69.4322 248.998 71.094 247.748 72.6454C246.033 74.774 244.386 76.7543 242.976 78.8534C240.259 82.8967 238.422 87.3769 237.993 94.6454L113.811 94.6805L81.4395 94.5956H81.4404C75.9808 94.5744 69.8281 94.2779 63.8691 94.6493C57.8811 95.0225 51.879 96.0737 46.5811 98.8387C38.3778 103.097 32.2304 110.476 29.5225 119.314L29.5205 119.319C28.6875 122.071 28.1968 126.568 27.9023 131.82C27.6052 137.12 27.5016 143.34 27.4951 149.625C27.4886 155.913 27.5788 162.284 27.6689 167.889C27.7592 173.503 27.8497 178.331 27.8447 181.562L27.7998 211.868V211.869C27.7959 217.617 27.5986 225.497 28.1992 231.282C28.6805 236.373 30.1814 241.315 32.6143 245.812L32.6221 245.826C37.14 253.974 44.7644 259.944 53.7568 262.378V262.379C55.7695 262.939 59.1957 263.27 63.1992 263.474C67.2531 263.68 72.0525 263.761 76.9043 263.779C86.5192 263.815 96.6847 263.597 101.342 263.597L188.452 263.619L250.388 263.639H250.389C261.019 263.64 272.151 263.813 282.837 263.375C288.263 263.153 293.724 260.427 298.043 257.963L298.093 257.934L298.142 257.902C306.549 252.202 310.644 245.832 312.569 238.568C314.461 231.429 314.234 223.459 314.189 214.729L314.122 193.933C323.358 191.431 332.191 188.601 341.232 185.695C341.464 206.895 341.171 228.061 341.303 249.315V249.316C341.353 257.289 341.332 265.172 339.731 272.812C338.084 280.464 334.849 287.686 330.236 294.01L330.233 294.014C320.31 307.725 309.172 313.47 296.794 315.841C285.036 318.093 272.259 317.305 258.094 317.23L255.244 317.226L173.397 317.279L92.6484 317.299C88.203 317.299 83.7443 317.321 79.3174 317.289C57.2642 317.132 41.5895 319.448 23.6562 305.768H23.6553C12.0853 296.957 4.42746 283.976 2.30273 269.608L2.20605 268.924C1.19594 260.9 1.59922 246.979 1.61035 238.288V238.286L1.58594 189.177L1.5625 140.688C1.56349 136.881 1.4669 131.738 1.5127 126.58C1.55847 121.425 1.74775 116.441 2.29883 113.065C3.77145 104.133 7.43653 95.7073 12.9668 88.5409L12.9658 88.5399C22.5123 76.3025 35.3796 69.5745 50.7041 67.6971Z" fill="#CB2CF6" stroke="white" stroke-width="3"/>
<path d="M245.45 369.224C252.572 369.225 259.313 369.469 262.923 370.35C266.005 371.103 268.649 374.902 268.814 379.395C268.97 383.635 266.849 388.161 260.759 390.185C255.307 390.678 246.507 390.498 239.879 390.447L237.161 390.435L193.048 390.443H193.047L123.005 390.469C110.508 390.472 97.9712 390.526 85.4969 390.394C84.9044 390.36 84.2907 390.343 83.7147 390.324C83.1063 390.304 82.5229 390.28 81.9549 390.229C80.8104 390.128 79.832 389.926 79.0174 389.513V389.512C73.2701 386.592 70.9698 380.218 74.1053 374.698L74.2586 374.436C75.2026 372.869 76.115 371.933 77.1541 371.254C78.19 370.577 79.4296 370.103 81.1581 369.578C91.0316 369.22 102.468 369.494 112.505 369.495L171.226 369.506H171.227L226.713 369.464H226.714C228.942 369.461 231.874 369.4 235.111 369.341C238.357 369.282 241.924 369.224 245.45 369.224Z" fill="#CB2CF6" stroke="white" stroke-width="3"/>
<path d="M209.569 329.478C214.758 338.799 219.853 349.259 224.984 359.008L210.96 358.939H210.952L118.692 358.974C121.12 354.304 123.62 349.674 126.131 345.013C128.888 339.895 131.656 334.741 134.344 329.483L209.569 329.478Z" fill="#CB2CF6" stroke="white" stroke-width="3"/>
<path d="M349.553 99.5395C351.665 99.2371 353.26 99.4149 354.495 99.8754C355.738 100.34 356.718 101.128 357.536 102.199C359.177 104.349 360.086 107.52 360.963 111.189C360.197 113.774 358.641 117.144 356.875 120.598C355.028 124.212 353.049 127.738 351.598 130.47L351.594 130.476L338.895 154.654L337.187 157.905L340.682 156.779C343.147 155.985 349.756 153.77 356.23 151.789C359.465 150.8 362.641 149.877 365.225 149.226C366.518 148.9 367.643 148.648 368.542 148.489C369.062 148.397 369.463 148.345 369.755 148.321C370.122 148.795 370.512 149.471 370.908 150.347C371.428 151.499 371.907 152.875 372.339 154.328C373.042 156.687 373.596 159.144 374.019 161.035C369.069 163.047 360.874 165.361 355.901 166.882C345.384 170.045 334.905 173.327 324.464 176.73C322.201 177.387 320.458 177.437 319.1 177.122C317.755 176.809 316.679 176.114 315.778 175.094C313.955 173.032 312.872 169.683 312.059 165.684C312.745 163.298 313.787 161.023 314.963 158.708L314.964 158.707C321.114 146.603 327.942 134.527 333.908 122.206L335.351 119.226L332.159 120.106C330.879 120.459 328.598 121.232 325.923 122.137C323.222 123.052 320.066 124.121 316.97 125.097C313.867 126.076 310.859 126.949 308.453 127.477C307.247 127.742 306.234 127.911 305.456 127.97C305.074 127.999 304.781 127.998 304.568 127.979C303.496 126.333 302.641 124.121 301.911 121.677C301.255 119.484 300.735 117.258 300.228 115.195C314.183 109.951 335.001 104.124 349.553 99.5395Z" fill="#CB2CF6" stroke="white" stroke-width="3"/>
<path d="M402.103 9.06061C403.854 9.00225 405.167 9.29744 406.18 9.79498C407.222 10.3063 408.038 11.0759 408.713 12.0782C410.058 14.0781 410.757 16.8659 411.439 20.0499C410.929 21.5693 409.772 24.1217 408.185 27.3214C406.487 30.7444 404.355 34.7998 402.149 38.9034C399.944 43.0053 397.67 47.146 395.691 50.7383C393.716 54.3248 392.028 57.3767 391.005 59.2833L389.292 62.4786L392.762 61.4278C394.042 61.0404 396.187 60.3507 398.714 59.5469C401.251 58.7399 404.195 57.8112 407.104 56.9366C410.017 56.061 412.879 55.2444 415.256 54.6583C416.446 54.3651 417.498 54.1339 418.365 53.9815C418.875 53.892 419.291 53.8363 419.618 53.8067C419.963 54.2499 420.319 54.8462 420.672 55.5938C421.153 56.6104 421.59 57.8128 421.989 59.0919C422.637 61.1689 423.143 63.2902 423.59 65.0743C419.645 66.6724 413.452 68.4696 408.826 69.8585L406.768 70.4835L406.763 70.4844C396.349 73.7396 385.908 76.9095 375.442 79.9942C373.81 80.3999 372.568 80.2355 371.581 79.7813C370.566 79.3144 369.685 78.4784 368.914 77.3321C367.419 75.111 366.536 72.0348 365.894 69.3126C366.616 67.3529 367.935 64.7118 369.396 61.9942C370.952 59.0996 372.589 56.2606 373.755 54.1553C378.301 46.0652 382.743 37.916 387.081 29.713L388.773 26.5128L385.313 27.5782C382.621 28.407 376.91 30.2598 371.254 31.9503C368.434 32.7929 365.657 33.5862 363.318 34.1797C361.41 34.6641 359.881 34.9884 358.873 35.1212C358.583 34.7409 358.255 34.1867 357.91 33.4415C357.418 32.3798 356.954 31.0848 356.525 29.7061C355.837 27.4952 355.284 25.2441 354.831 23.4786C359.666 21.5752 366.61 19.6803 371.674 18.1495L371.678 18.1485C381.802 15.0606 391.944 12.0299 402.103 9.06061Z" fill="#CB2CF6" stroke="white" stroke-width="3"/>
<path d="M289.35 41.6835C293.306 41.0362 296.15 42.7519 297.745 45.1825C299.4 47.7033 299.633 50.8486 298.478 52.9521C292.491 63.8562 282.602 75.5222 274.721 85.8857L272.447 88.8749L276.154 88.2743C278.722 87.8583 284.352 86.8105 289.922 85.9853C292.694 85.5745 295.405 85.2262 297.649 85.0468C298.772 84.9571 299.757 84.912 300.563 84.9189C301.032 84.9229 301.408 84.9468 301.697 84.9794C301.908 85.3908 302.124 85.9535 302.327 86.6718C302.613 87.6803 302.846 88.8717 303.039 90.1298C303.341 92.0939 303.531 94.085 303.697 95.7177C292.802 98.0957 272.107 100.748 261.212 102.36C256.612 103.031 254.548 102.01 253.405 100.402C252.77 99.5082 252.313 98.2929 251.991 96.7079C251.691 95.2259 251.527 93.5053 251.411 91.5565C252.174 90.0744 253.623 87.8373 255.524 85.1317C257.556 82.2411 260.04 78.8973 262.604 75.5175C267.702 68.7951 273.161 61.8645 275.808 58.2763L278.061 55.2216L274.328 55.911C266.953 57.2741 259.473 58.5757 252.066 59.4472L250.587 59.6151C250.229 59.6544 249.858 59.5397 249.401 58.8495C248.916 58.1157 248.52 56.9654 248.241 55.5575C247.765 53.1568 247.709 50.4509 247.8 48.9325C247.805 48.9302 247.81 48.928 247.815 48.9257C248.115 48.7827 248.539 48.619 249.094 48.4394C250.2 48.0811 251.7 47.6991 253.499 47.3046C257.09 46.5173 261.743 45.7076 266.541 44.9511C276.174 43.4322 286.155 42.1606 289.329 41.6864L289.34 41.6855L289.35 41.6835Z" fill="#CB2CF6" stroke="white" stroke-width="3"/>
<path d="M332.286 1.5791C334.207 1.38184 335.436 1.57461 336.191 1.91113C336.883 2.22016 337.245 2.67616 337.43 3.30273C337.636 4.00206 337.637 4.98721 337.364 6.27344C337.094 7.54215 336.584 8.9861 335.899 10.5342C333.122 16.8093 327.92 23.8784 326.186 26.6221L324.003 30.0752L327.902 28.8545C331.917 27.5978 337.558 26.1769 341.923 25.4307C342.512 27.3656 342.938 29.1157 343.401 31.1152C336.862 32.981 327.439 34.9556 320.893 36.5684L320.879 36.5713C318.371 37.2132 316.653 37.3203 315.529 37.1318C314.468 36.954 314.041 36.5418 313.826 36.1211C313.563 35.6074 313.456 34.7625 313.675 33.4873C313.89 32.2383 314.385 30.7572 315.096 29.125C317.976 22.512 323.798 14.6335 325.641 11.7246L327.648 8.55762L324.009 9.4668C319.713 10.5415 315.321 11.5427 310.963 12.5654C310.296 10.4841 309.973 9.16305 309.577 6.99414C316.276 5.08383 325.47 3.18929 332.286 1.5791Z" fill="#CB2CF6" stroke="white" stroke-width="3"/>
</svg>
